<svg width="16" height="16" viewBox="0 0 16 16" fill="none" xmlns="http://www.w3.org/2000/svg">
<g clip-path="url(#clip0_10921_49150)">
<path d="M1.93333 1H9.036V15H1.93333C1.6858 15 1.4484 14.9017 1.27337 14.7266C1.09833 14.5516 1 14.3142 1 14.0667V1.93333C1 1.6858 1.09833 1.4484 1.27337 1.27337C1.4484 1.09833 1.6858 1 1.93333 1Z" fill="#344054"/>
<path d="M10.2026 6.96411H15V14.0668C15 14.3143 14.9016 14.5517 14.7266 14.7267C14.5516 14.9018 14.3142 15.0001 14.0666 15.0001H10.2026V6.96411Z" fill="#344054"/>
<path d="M10.2026 1H14.0666C14.3142 1 14.5516 1.09833 14.7266 1.27337C14.9016 1.4484 15 1.6858 15 1.93333V5.79733H10.2026V1Z" fill="#344054"/>
</g>
<defs>
<clipPath id="clip0_10921_49150">
<rect width="14" height="14" fill="white" transform="translate(1 1)"/>
</clipPath>
</defs>
</svg>
